# xmcd CD database file
# Copyright (C) 1993-1997  Ti Kan
#
# Track frame offsets:
#	150
#	12312
#	33060
#	46625
#	61947
#	87937
#	100817
#	112115
#	130997
#	150642
#	174400
#	186917
#	200930
#	227580
#
# Disc length: 3089 seconds
#
# Revision: 1
# Processed by: cddbd v1.4b41PL1 Copyright (c) Steve Scherf et al.
# Submitted via: xmcd 2.2 PL1
#
DISCID=b10c0f0e
DTITLE=Homesick James - Got To Move
DYEAR=1900
DGENRE=
TTITLE0=Can't Afford to do it
TTITLE1=Tin Pan Alley
TTITLE2=Mr. Pawnshop Man ( Three Ball Blues )
TTITLE3=Baby Please Set A Date
TTITLE4=Welfare Girl
TTITLE5=Hawaiian Boogie
TTITLE6=Dust My Broom
TTITLE7=That's All Right
TTITLE8=Highway 51
TTITLE9=Tennessee Woman
TTITLE10=Got To Move
TTITLE11=Bein' With The One You Love ( Lost Lover Blues)
TTITLE12=Homesick's Woman
TTITLE13=Homesick Talking
EXTD=
EXTT0=
EXTT1=
EXTT2=
EXTT3=
EXTT4=
EXTT5=
EXTT6=
EXTT7=
EXTT8=
EXTT9=
EXTT10=
EXTT11=
EXTT12=
EXTT13=
PLAYORDER=
